<svg preserveAspectRatio="none" width="100%" height="100%" overflow="visible" style="display: block;" viewBox="0 0 24 24" fill="none" xmlns="http://www.w3.org/2000/svg">
<g id="ImageAssets/Icon/Standard/Relative/AuctionHammer" clip-path="url(#clip0_0_4)">
<g id="Vector">
<path d="M11.2384 0.713685C11.7644 0.583825 12.2976 0.640783 12.8302 0.834779C13.8497 1.20615 14.9749 2.12201 16.3136 3.46076C16.3202 3.46734 16.3258 3.47476 16.3314 3.48218C16.3354 3.48752 16.3395 3.49285 16.3439 3.49786C17.6642 4.82166 18.5674 5.93629 18.9357 6.94708C19.1297 7.47976 19.1867 8.01287 19.0568 8.53888C18.928 9.06004 18.6332 9.50441 18.2443 9.89337C17.7697 10.368 17.2302 10.7461 16.5665 10.8338C16.0108 12.0008 15.2239 13.1569 14.1906 14.1902C13.1591 15.2245 12.0021 16.0114 10.8322 16.5672C10.7435 17.227 10.3702 17.7674 9.89368 18.244C9.50471 18.6329 9.06037 18.9287 8.53919 19.0574C8.01322 19.1873 7.48003 19.1303 6.94739 18.9363C5.92793 18.565 4.80275 17.6491 3.46399 16.3104C2.1256 14.9704 1.20998 13.8445 0.838992 12.825C0.6451 12.292 0.588248 11.7586 0.718875 11.2322C0.848234 10.711 1.14391 10.2662 1.53333 9.87677C2.00764 9.40254 2.54694 9.02425 3.21009 8.93634C3.76581 7.76947 4.55385 6.61409 5.58704 5.58087C6.61837 4.54675 7.77464 3.75871 8.94446 3.20294C9.03328 2.54345 9.40749 2.00261 9.88391 1.52618C10.2728 1.13739 10.7174 0.842424 11.2384 0.713685Z" fill="var(--fill-0, #333333)"/>
<path fill-rule="evenodd" clip-rule="evenodd" d="M17.049 13.5897C16.8983 13.4605 16.7014 13.3988 16.504 13.4188C16.3066 13.4387 16.1257 13.5384 16.004 13.6951C15.6694 14.1267 15.3047 14.539 14.922 14.9217C14.5392 15.3044 14.127 15.6691 13.6954 16.0037C13.5387 16.1254 13.4391 16.3063 13.4191 16.5037C13.3991 16.7011 13.4608 16.898 13.59 17.0486L18.1134 22.3182C18.5962 22.8787 19.2731 23.2444 20.0128 23.3348L20.1925 23.3504C22.0071 23.4634 23.5069 21.9262 23.339 20.1053C23.3392 20.0745 23.3379 20.0435 23.3341 20.0125C23.2552 19.3671 22.9691 18.7673 22.5187 18.3026L22.3165 18.1121L17.049 13.5897Z" fill="var(--fill-0, #333333)"/>
<path d="M11.2384 0.713685C11.7644 0.583825 12.2976 0.640783 12.8302 0.834779C13.8497 1.20615 14.9749 2.12201 16.3136 3.46076C16.3202 3.46734 16.3258 3.47476 16.3314 3.48218C16.3354 3.48752 16.3395 3.49285 16.3439 3.49786C17.6642 4.82166 18.5674 5.93629 18.9357 6.94708C19.1297 7.47976 19.1867 8.01287 19.0568 8.53888C18.928 9.06004 18.6332 9.50441 18.2443 9.89337C17.7697 10.368 17.2302 10.7461 16.5665 10.8338C16.0108 12.0008 15.2239 13.1569 14.1906 14.1902C13.1591 15.2245 12.0021 16.0114 10.8322 16.5672C10.7435 17.227 10.3702 17.7674 9.89368 18.244C9.50471 18.6329 9.06037 18.9287 8.53919 19.0574C8.01322 19.1873 7.48003 19.1303 6.94739 18.9363C5.92793 18.565 4.80275 17.6491 3.46399 16.3104C2.1256 14.9704 1.20998 13.8445 0.838992 12.825C0.6451 12.292 0.588248 11.7586 0.718875 11.2322C0.848234 10.711 1.14391 10.2662 1.53333 9.87677C2.00764 9.40254 2.54694 9.02425 3.21009 8.93634C3.76581 7.76947 4.55385 6.61409 5.58704 5.58087C6.61837 4.54675 7.77464 3.75871 8.94446 3.20294C9.03328 2.54345 9.40749 2.00261 9.88391 1.52618C10.2728 1.13739 10.7174 0.842424 11.2384 0.713685Z" stroke="var(--stroke-0, #333333)" stroke-width="1.45" stroke-linecap="round" stroke-linejoin="round"/>
<path fill-rule="evenodd" clip-rule="evenodd" d="M17.049 13.5897C16.8983 13.4605 16.7014 13.3988 16.504 13.4188C16.3066 13.4387 16.1257 13.5384 16.004 13.6951C15.6694 14.1267 15.3047 14.539 14.922 14.9217C14.5392 15.3044 14.127 15.6691 13.6954 16.0037C13.5387 16.1254 13.4391 16.3063 13.4191 16.5037C13.3991 16.7011 13.4608 16.898 13.59 17.0486L18.1134 22.3182C18.5962 22.8787 19.2731 23.2444 20.0128 23.3348L20.1925 23.3504C22.0071 23.4634 23.5069 21.9262 23.339 20.1053C23.3392 20.0745 23.3379 20.0435 23.3341 20.0125C23.2552 19.3671 22.9691 18.7673 22.5187 18.3026L22.3165 18.1121L17.049 13.5897Z" stroke="var(--stroke-0, #333333)" stroke-width="1.45" stroke-linecap="round" stroke-linejoin="round"/>
</g>
</g>
<defs>
<clipPath id="clip0_0_4">
<rect width="24" height="24" fill="white"/>
</clipPath>
</defs>
</svg>
