<svg preserveAspectRatio="none" width="100%" height="100%" overflow="visible" style="display: block;" viewBox="0 0 24 24" fill="none" xmlns="http://www.w3.org/2000/svg">
<g id="ImageAssets/Icon/Standard/Outline/Todo">
<path id="Vector" fill-rule="evenodd" clip-rule="evenodd" d="M18.7037 6.36747C18.5719 6.23563 18.3605 6.23563 18.2286 6.36747L10.249 14.3471C9.98734 14.6087 9.56312 14.6087 9.30147 14.3471L5.77137 10.817C5.63952 10.6851 5.4281 10.6851 5.29626 10.817L4.05145 12.0618C3.91961 12.1936 3.91961 12.4051 4.05145 12.5369L8.87176 17.3572C9.37061 17.8561 10.1798 17.8561 10.6787 17.3572L19.9485 8.08739C20.0804 7.95554 20.0804 7.74412 19.9485 7.61228L18.7037 6.36747ZM17.2811 5.41995C17.9362 4.7648 18.9961 4.7648 19.6512 5.41995L20.8961 6.66475C21.5512 7.3199 21.5512 8.37977 20.8961 9.03491L11.6262 18.3047C10.6041 19.3269 8.94639 19.3269 7.92424 18.3047L3.10393 13.4844C2.44878 12.8293 2.44878 11.7694 3.10393 11.1143L4.34873 9.86946C5.00388 9.21432 6.06374 9.21432 6.71889 9.86946L9.77523 12.9258L17.2811 5.41995Z" fill="var(--fill-0, #333333)"/>
</g>
</svg>
