<svg preserveAspectRatio="none" width="100%" height="100%" overflow="visible" style="display: block;" viewBox="0 0 24 24" fill="none" xmlns="http://www.w3.org/2000/svg">
<g id="ImageAssets/Icon/Standard/Relative/Home">
<path id="Vector (Stroke)" d="M19.5908 21.7969C20.8855 21.7969 21.9424 20.74 21.9424 19.4453V10.5703C21.9424 9.97635 21.7522 9.33955 21.4766 8.78809C21.2352 8.30539 20.9019 7.83586 20.5039 7.4873L20.3301 7.3457L20.3291 7.34473L13.7461 2.4248C13.2403 2.04562 12.6043 1.875 11.999 1.875C11.4691 1.87508 10.916 2.00585 10.4463 2.29199L10.251 2.42383L10.25 2.4248L3.66699 7.34473L3.66602 7.3457C3.19074 7.70216 2.79531 8.23653 2.51953 8.78809C2.24383 9.33958 2.05371 9.97632 2.05371 10.5703V19.4453C2.05371 20.74 3.11061 21.7969 4.40527 21.7969H8.17969C9.47422 21.7967 10.5303 20.7399 10.5303 19.4453V16.6914C10.5303 15.8827 11.1874 15.2266 11.9961 15.2266C12.8047 15.2267 13.4609 15.8828 13.4609 16.6914V19.4453C13.4609 19.4727 13.4656 19.4998 13.4688 19.5264C13.5116 20.7839 14.5488 21.7969 15.8164 21.7969H19.5908Z" fill="var(--fill-0, #333333)"/>
</g>
</svg>
