<svg preserveAspectRatio="none" width="100%" height="100%" overflow="visible" style="display: block;" viewBox="0 0 24 24" fill="none" xmlns="http://www.w3.org/2000/svg">
<g id="ImageAssets/Icon/Standard/Relative/Notification">
<g id="Vector">
<path fill-rule="evenodd" clip-rule="evenodd" d="M12.0081 2.62949C11.4469 2.62949 10.9897 3.08665 10.9897 3.6479V5.07132C10.9897 5.44135 10.6897 5.74132 10.3197 5.74132C9.94967 5.74132 9.6497 5.44135 9.6497 5.07132V3.6479C9.6497 2.34659 10.7068 1.28949 12.0081 1.28949C13.3094 1.28949 14.3665 2.34659 14.3665 3.6479V5.11296C14.3665 5.48299 14.0666 5.78296 13.6965 5.78296C13.3265 5.78296 13.0265 5.48299 13.0265 5.11296V3.6479C13.0265 3.08665 12.5694 2.62949 12.0081 2.62949Z" fill="var(--fill-0, #333333)"/>
<path fill-rule="evenodd" clip-rule="evenodd" d="M9.46412 18.378C9.83415 18.378 10.1341 18.678 10.1341 19.048C10.1341 20.0825 10.9736 20.922 12.0081 20.922C13.0426 20.922 13.8821 20.0825 13.8821 19.048C13.8821 18.678 14.182 18.378 14.5521 18.378C14.9221 18.378 15.2221 18.678 15.2221 19.048C15.2221 20.8225 13.7826 22.262 12.0081 22.262C10.2336 22.262 8.79412 20.8225 8.79412 19.048C8.79412 18.678 9.09409 18.378 9.46412 18.378Z" fill="var(--fill-0, #333333)"/>
<path fill-rule="evenodd" clip-rule="evenodd" d="M5.52335 10.6817C5.52335 7.1014 8.42787 4.19688 12.0082 4.19688C15.5885 4.19688 18.493 7.1014 18.493 10.6817C18.493 11.0517 18.193 11.3517 17.823 11.3517C17.4529 11.3517 17.153 11.0517 17.153 10.6817C17.153 7.84147 14.8484 5.53688 12.0082 5.53688C9.16793 5.53688 6.86335 7.84147 6.86335 10.6817C6.86335 11.0517 6.56338 11.3517 6.19335 11.3517C5.82332 11.3517 5.52335 11.0517 5.52335 10.6817Z" fill="var(--fill-0, #333333)"/>
<path fill-rule="evenodd" clip-rule="evenodd" d="M6.18954 10.0117C6.55957 10.0117 6.85954 10.3117 6.85954 10.6817V13.1462C6.85954 13.8607 6.64089 14.9313 6.3541 15.5924L6.35361 15.5936L5.20423 18.2666C5.18471 18.3124 5.17713 18.3461 5.17454 18.3669C5.19407 18.3723 5.22606 18.378 5.27341 18.378H18.7315C18.7794 18.378 18.8119 18.3721 18.8317 18.3666C18.8288 18.3462 18.8213 18.3141 18.8022 18.27L18.8012 18.2679L17.6504 15.5914L17.6498 15.5902C17.369 14.9334 17.1454 13.8634 17.1454 13.1462V10.6817C17.1454 10.3117 17.4453 10.0117 17.8154 10.0117C18.1854 10.0117 18.4854 10.3117 18.4854 10.6817V13.1462C18.4854 13.6781 18.6705 14.5687 18.8817 15.0629L20.0313 17.7363L20.0318 17.7375C20.2224 18.1773 20.24 18.6866 19.9619 19.1095C19.6839 19.5323 19.2094 19.718 18.7315 19.718H5.27341C4.79494 19.718 4.32113 19.5319 4.04381 19.1085C3.76715 18.6861 3.78469 18.1781 3.97216 17.7398L5.12448 15.0599C5.33716 14.5701 5.51954 13.6805 5.51954 13.1462V10.6817C5.51954 10.3117 5.81951 10.0117 6.18954 10.0117Z" fill="var(--fill-0, #333333)"/>
</g>
</g>
</svg>
