<svg preserveAspectRatio="none" width="100%" height="100%" overflow="visible" style="display: block;" viewBox="0 0 24 24" fill="none" xmlns="http://www.w3.org/2000/svg">
<g id="ImageAssets/Icon/Standard/Relative/Wallet">
<path id="Vector" d="M20.3789 8.6172C20.7812 8.75092 21.0731 9.13069 21.0732 9.57618V19.6445L21.0683 19.7481C21.016 20.2565 20.5831 20.6562 20.0615 20.6563H5.6728C4.15482 20.656 2.92769 19.4239 2.92769 17.9102V8.69923C3.0352 8.81544 3.15013 8.92452 3.27144 9.02638V17.9102C3.27144 19.1514 4.21455 20.1762 5.42671 20.2998L5.6728 20.3125H20.0615C20.3823 20.3123 20.6529 20.0822 20.7158 19.7793L20.7294 19.6455V9.5752C20.7288 9.24097 20.4778 8.96279 20.1542 8.917L20.3789 8.6172ZM17.5966 12.9375C16.6738 12.9378 15.9257 13.6865 15.9257 14.6094C15.926 15.5321 16.6739 16.28 17.5966 16.2803C18.5195 16.2803 19.2683 15.5323 19.2685 14.6094C19.2685 13.6863 18.5197 12.9375 17.5966 12.9375ZM19.1689 8.56544L18.9648 8.8379C18.9322 8.88144 18.881 8.90724 18.8271 8.90724H8.66694C8.60242 8.90724 8.54296 8.87074 8.51362 8.81251C8.48455 8.75447 8.49059 8.6848 8.52925 8.63282L8.58003 8.56544H19.1689ZM7.50972 8.56544C7.49307 8.67898 7.49363 8.79405 7.51069 8.90821H6.17573V8.56544H7.50972ZM3.09956 5.99122C3.17944 5.99122 3.24589 6.04675 3.2646 6.1211L3.27241 6.19825L3.28218 6.38282V6.39552L3.28413 6.40821C3.39043 7.45436 4.16703 8.29886 5.17573 8.51173V8.85548C3.90018 8.61934 2.93062 7.50027 2.93062 6.15724V6.14552C2.93954 6.05902 3.01072 5.99122 3.09956 5.99122ZM19.5722 4.75587L21.0039 5.82618C21.04 5.8532 21.0646 5.89417 21.0712 5.93946C21.0778 5.98512 21.0659 6.0314 21.039 6.06739L19.9179 7.56544H19.4882L20.3603 6.39845L20.6601 5.99708L20.2597 5.69825L18.999 4.75587H19.5722ZM11.8564 4.75587L9.75581 7.56544H9.3271L11.4267 4.75587H11.8564ZM5.67573 3.41212H11.1826L10.9257 3.75587H5.67573L5.42964 3.76856C4.59797 3.85332 3.89478 4.36304 3.53413 5.0752C3.42674 5.03227 3.31173 5.00445 3.19136 4.99513C3.62904 4.06152 4.57459 3.41228 5.67573 3.41212ZM17.7177 3.41212H17.7744L18.2343 3.75587H17.7177C17.6229 3.75587 17.5458 3.67885 17.5458 3.58399C17.5459 3.48915 17.6229 3.41212 17.7177 3.41212ZM20.7412 3.41212L20.8027 3.41798C20.8777 3.43627 20.9335 3.50376 20.9335 3.58399C20.9335 3.66415 20.8775 3.73064 20.8027 3.74903L20.7412 3.75587H19.9052L19.4453 3.41212H20.7412ZM14.3564 0.91993C14.4009 0.913506 14.4466 0.924893 14.4833 0.952157L16.8916 2.75196C16.8102 2.83277 16.7405 2.92563 16.6855 3.02735L14.8164 1.62989L14.415 1.33009L14.1162 1.73145L13.0156 3.20411V2.62891L14.2265 1.0088L14.2753 0.955087C14.2991 0.936448 14.3269 0.924232 14.3564 0.91993ZM4.27144 9.63184C4.61466 9.77166 4.98253 9.86401 5.36812 9.89552L5.6728 9.90821H19.7294V19.3125H5.6728C4.89824 19.3123 4.27144 18.6833 4.27144 17.9102V9.63184Z" fill="var(--fill-0, #333333)" stroke="var(--stroke-0, #333333)"/>
</g>
</svg>
