<svg preserveAspectRatio="none" width="100%" height="100%" overflow="visible" style="display: block;" viewBox="0 0 24 24" fill="none" xmlns="http://www.w3.org/2000/svg">
<g id="ImageAssets/Icon/Standard/Relative/Cart">
<path id="Vector" fill-rule="evenodd" clip-rule="evenodd" d="M2.72163 2.5C2.32309 2.5 2 2.82361 2 3.22279C2 3.62198 2.32309 3.94559 2.72163 3.94559H5.23543L7.09631 14.5788L7.09729 14.5843L7.54695 17.1537C6.75393 17.5074 6.20105 18.3036 6.20105 19.2292C6.20105 20.4833 7.2161 21.5 8.46822 21.5C9.72035 21.5 10.7354 20.4833 10.7354 19.2292C10.7354 18.9385 10.6808 18.6605 10.5814 18.405H16.2473C16.1479 18.6605 16.0933 18.9385 16.0933 19.2292C16.0933 20.4833 17.1084 21.5 18.3605 21.5C19.6126 21.5 20.6277 20.4833 20.6277 19.2292C20.6277 17.9751 19.6126 16.9584 18.3605 16.9584C18.3349 16.9584 18.3094 16.9588 18.2839 16.9597L18.2643 16.9594H8.97822L8.66626 15.1769H19.2306C19.5579 15.1769 19.8442 14.9563 19.9281 14.6394L21.9755 6.9107C22.097 6.45205 21.7517 6.00254 21.278 6.00254H7.06069L6.56826 3.18879C6.55053 2.80539 6.23457 2.5 5.84741 2.5H2.72163ZM7.31369 7.44813L8.41327 13.7313H18.6755L20.3399 7.44813H7.31369Z" fill="var(--fill-0, #333333)"/>
</g>
</svg>
