<svg preserveAspectRatio="none" width="100%" height="100%" overflow="visible" style="display: block;" viewBox="0 0 24 24" fill="none" xmlns="http://www.w3.org/2000/svg">
<g id="ImageAssets/Icon/Standard/Relative/Camera">
<path id="Vector" d="M7.43164 1.5127H16.5508L16.5889 1.51465C16.6355 1.52164 16.6781 1.54714 16.7051 1.58594L18.7002 4.45508L18.8486 4.66992H21.2871C22.3053 4.67018 23.1377 5.50298 23.1377 6.52148V18.6465L23.1279 18.835C23.0328 19.7654 22.2419 20.4968 21.2871 20.4971H2.71289C1.69415 20.4971 0.86137 19.6647 0.861324 18.6465V6.52148C0.861324 5.50296 1.69436 4.66992 2.71289 4.66992H5.14648L5.29492 4.45508L7.27734 1.60352L7.30566 1.56738C7.32943 1.54184 7.3608 1.52399 7.3955 1.5166L7.43164 1.5127ZM12 6.12109C8.81382 6.12109 6.23046 8.70445 6.23046 11.8906C6.23066 15.0767 8.81402 17.6592 12 17.6592C15.1859 17.659 17.7684 15.0765 17.7686 11.8906C17.7686 8.70465 15.1861 6.12128 12 6.12109ZM12 8.46484C13.8916 8.46502 15.4248 9.99873 15.4248 11.8906L15.4199 12.0664C15.3283 13.8763 13.8327 15.3153 12 15.3154C10.1081 15.3154 8.57439 13.7823 8.57421 11.8906C8.57421 9.99873 10.1081 8.46484 12 8.46484Z" fill="var(--fill-0, #333333)" stroke="var(--stroke-0, #333333)"/>
</g>
</svg>
